<?xml version="1.0" standalone="no"?>
<!DOCTYPE svg PUBLIC "-//W3C//DTD SVG 20010904//EN"
 "http://www.w3.org/TR/2001/REC-SVG-20010904/DTD/svg10.dtd">
<svg version="1.0" xmlns="http://www.w3.org/2000/svg"
 width="1418.000000pt" height="1418.000000pt" viewBox="0 0 1418.000000 1418.000000"
 preserveAspectRatio="xMidYMid meet">
<metadata>
Created by potrace 1.14, written by Peter Selinger 2001-2017
</metadata>
<g transform="translate(0.000000,1418.000000) scale(0.100000,-0.100000)"
fill="#000000" stroke="none">
<path d="M6574 14173 c5 -10 -5 -13 -36 -14 -24 -1 -56 -3 -73 -5 -16 -2 -55
-5 -85 -8 -30 -3 -70 -7 -88 -10 -24 -4 -31 -2 -25 7 5 8 2 8 -9 -1 -9 -7 -40
-15 -70 -19 -89 -9 -103 -11 -103 -13 0 -2 -88 -13 -117 -14 -16 -1 -28 -4
-28 -8 0 -4 -13 -6 -30 -4 -16 2 -30 0 -30 -4 0 -5 -8 -7 -17 -5 -10 1 -22 0
-28 -3 -5 -4 -21 -7 -35 -8 -14 -1 -44 -7 -65 -13 -22 -5 -53 -13 -70 -15 -16
-3 -41 -8 -55 -11 -14 -3 -36 -7 -50 -10 -14 -3 -38 -9 -55 -13 -16 -5 -42 -8
-57 -8 -14 1 -24 -2 -22 -6 3 -4 -2 -8 -10 -8 -24 0 -30 -1 -47 -11 -10 -5
-21 -3 -29 4 -10 9 -11 9 -6 0 4 -7 4 -13 -1 -14 -4 0 -16 -2 -25 -5 -10 -2
-26 -6 -35 -8 -10 -3 -18 -5 -18 -6 0 -2 -14 -5 -53 -14 -12 -3 -26 -7 -30
-10 -5 -3 -22 -8 -38 -11 -46 -10 -48 -10 -59 -17 -12 -7 -81 -21 -91 -18 -4
1 -10 -2 -13 -7 -3 -6 -24 -15 -46 -20 -45 -13 -100 -31 -132 -46 -12 -5 -35
-10 -51 -11 -17 -1 -28 -4 -26 -8 5 -8 -50 -28 -88 -31 -9 -1 -14 -5 -12 -9 3
-4 -3 -8 -13 -8 -11 0 -24 -5 -30 -11 -5 -5 -26 -11 -46 -12 -19 -1 -35 -4
-34 -7 1 -3 -1 -6 -5 -8 -5 -1 -24 -11 -43 -22 -24 -13 -35 -16 -35 -7 0 6 -5
4 -11 -5 -5 -10 -15 -18 -22 -18 -7 0 -32 -10 -57 -22 -56 -26 -51 -24 -75
-32 -11 -4 -23 -6 -27 -4 -4 2 -14 -6 -22 -17 -11 -14 -15 -16 -16 -6 0 11 -4
9 -14 -5 -8 -10 -17 -16 -21 -12 -4 3 -15 -1 -26 -10 -11 -9 -23 -17 -27 -18
-9 0 -85 -37 -92 -44 -3 -3 -14 -7 -25 -8 -11 -2 -22 -7 -25 -11 -3 -4 -59
-34 -125 -67 -66 -32 -123 -63 -126 -68 -4 -5 -13 -5 -20 -1 -8 5 -11 4 -7 0
7 -8 -123 -88 -164 -101 -10 -4 -18 -10 -18 -15 0 -5 -9 -9 -20 -9 -11 0 -20
-4 -20 -9 0 -5 -16 -16 -35 -25 -19 -9 -35 -21 -35 -27 0 -6 -4 -7 -10 -4 -5
3 -10 1 -10 -4 0 -6 -6 -11 -14 -11 -8 0 -22 -7 -30 -16 -9 -8 -21 -12 -27 -8
-7 4 -9 3 -6 -3 4 -6 -10 -19 -31 -29 -20 -10 -39 -22 -42 -26 -10 -13 -110
-78 -120 -78 -5 0 -10 -5 -10 -11 0 -5 -4 -7 -10 -4 -5 3 -10 2 -10 -4 0 -5
-17 -20 -37 -32 -21 -13 -41 -28 -45 -33 -4 -6 -8 -7 -8 -2 0 6 -6 3 -12 -5
-19 -23 -94 -79 -106 -79 -5 0 -12 -7 -16 -15 -3 -8 -15 -15 -27 -15 -12 0
-20 -3 -16 -6 10 -10 -52 -56 -64 -48 -7 4 -9 3 -6 -3 4 -5 -8 -22 -26 -36
-18 -14 -42 -34 -54 -44 -12 -10 -34 -27 -49 -38 -30 -21 -61 -48 -123 -105
-21 -19 -53 -46 -70 -60 -17 -14 -56 -49 -86 -77 -30 -29 -60 -53 -66 -53 -5
0 -7 -4 -4 -10 3 -5 2 -10 -3 -10 -12 0 -232 -218 -232 -230 0 -6 -6 -10 -12
-10 -7 0 -24 -16 -38 -34 -14 -19 -28 -32 -32 -29 -5 2 -8 0 -8 -5 0 -5 -17
-27 -37 -49 -21 -22 -53 -56 -70 -77 -18 -21 -37 -35 -43 -31 -5 3 -7 0 -4 -8
3 -9 -7 -24 -23 -37 -15 -12 -26 -23 -23 -23 5 -2 -36 -50 -77 -93 -13 -13
-23 -27 -23 -33 0 -5 -11 -18 -25 -29 -14 -11 -25 -23 -25 -26 0 -13 -43 -55
-51 -50 -5 3 -7 -1 -4 -8 3 -7 -5 -25 -17 -40 -42 -49 -53 -63 -71 -91 -37
-57 -49 -67 -66 -54 -14 11 -14 10 -1 -7 12 -15 12 -20 2 -23 -6 -3 -10 -9 -6
-14 3 -5 1 -9 -4 -9 -5 0 -35 -39 -68 -87 -32 -49 -62 -89 -66 -91 -4 -2 -8
-8 -8 -12 0 -15 -81 -125 -90 -123 -5 2 -7 -4 -4 -12 3 -8 0 -21 -8 -29 -29
-33 -39 -46 -33 -46 3 0 -8 -20 -25 -44 -16 -25 -30 -49 -30 -55 0 -6 -4 -11
-9 -11 -5 0 -14 -12 -20 -27 -17 -43 -62 -117 -80 -130 -9 -7 -13 -13 -8 -13
9 0 -93 -193 -105 -198 -4 -2 -8 -8 -8 -14 0 -20 -43 -97 -51 -92 -5 3 -7 -1
-4 -8 6 -17 -49 -130 -59 -121 -4 4 -4 0 -1 -9 4 -9 1 -19 -4 -23 -6 -3 -9
-11 -6 -16 4 -5 1 -9 -5 -9 -6 0 -8 -4 -5 -10 3 -5 1 -10 -5 -10 -6 0 -9 -4
-6 -9 4 -5 3 -11 -2 -13 -4 -1 -17 -28 -29 -58 -12 -30 -25 -54 -30 -53 -4 1
-9 -8 -10 -20 -2 -31 -26 -97 -35 -97 -5 0 -8 -8 -8 -18 0 -10 -3 -22 -7 -26
-4 -3 -8 -12 -9 -19 -1 -7 -16 -45 -33 -84 -16 -40 -28 -73 -25 -73 3 0 -2
-12 -10 -27 -9 -16 -26 -62 -40 -103 -13 -41 -31 -93 -39 -115 -15 -41 -76
-232 -81 -257 -14 -62 -19 -77 -25 -74 -3 2 -7 -14 -8 -37 -2 -22 -6 -43 -10
-46 -5 -3 -10 -17 -11 -31 -2 -14 -8 -27 -13 -28 -5 -2 -7 -8 -4 -12 3 -5 -3
-46 -14 -92 -11 -46 -28 -117 -37 -158 -10 -41 -22 -78 -27 -81 -5 -4 -5 -9 2
-13 6 -4 8 -13 4 -19 -4 -7 -8 -20 -9 -29 -1 -10 -2 -19 -4 -20 -3 -4 -9 -39
-14 -78 -3 -19 -7 -46 -11 -60 -3 -14 -8 -45 -11 -70 -3 -25 -8 -52 -11 -60
-3 -8 -7 -29 -8 -46 -2 -17 -6 -49 -10 -71 -3 -22 -9 -62 -11 -89 -11 -97 -12
-109 -14 -109 -2 0 -4 -23 -14 -145 -2 -25 -4 -64 -5 -88 -1 -30 -5 -41 -13
-36 -7 5 -8 3 -2 -7 4 -8 6 -48 4 -89 -13 -214 -2 -932 14 -959 3 -4 1 -13 -4
-21 -5 -8 -5 -21 1 -31 5 -10 11 -54 13 -99 2 -44 6 -84 10 -87 3 -3 0 -13 -7
-21 -9 -13 -9 -14 1 -8 9 5 12 -3 13 -31 0 -21 6 -73 13 -115 8 -52 9 -75 2
-71 -6 4 -5 -1 3 -10 8 -10 11 -20 8 -24 -4 -3 -3 -11 2 -17 5 -6 11 -36 14
-66 3 -30 8 -62 12 -71 3 -8 7 -33 9 -55 2 -21 7 -46 10 -55 4 -9 8 -39 9 -67
1 -27 5 -48 10 -45 4 2 7 -4 8 -14 0 -10 2 -25 5 -33 7 -27 26 -114 29 -135 2
-11 4 -20 5 -20 1 0 3 -7 5 -15 2 -8 10 -40 19 -71 8 -30 17 -66 19 -80 2 -13
9 -37 16 -53 6 -16 9 -31 7 -34 -3 -2 1 -17 9 -32 8 -15 11 -30 8 -33 -3 -4 0
-13 7 -22 7 -8 9 -15 5 -15 -4 0 -2 -7 5 -15 7 -9 10 -18 7 -21 -3 -3 1 -17 8
-31 8 -15 11 -31 8 -36 -3 -5 -1 -12 5 -16 7 -4 14 -18 16 -31 2 -14 5 -26 7
-27 1 -2 2 -7 3 -12 0 -5 4 -13 8 -17 4 -4 3 -13 -4 -21 -8 -11 -8 -13 0 -11
10 3 69 -147 115 -292 6 -19 14 -37 18 -40 3 -3 10 -16 13 -30 4 -14 14 -40
22 -58 9 -18 17 -41 19 -50 1 -10 12 -35 23 -57 38 -76 117 -260 114 -267 -1
-5 1 -8 6 -8 11 0 34 -58 27 -70 -4 -6 -1 -9 7 -8 7 2 14 -7 16 -20 2 -12 8
-22 13 -22 6 0 8 -4 4 -9 -3 -5 2 -16 10 -24 8 -9 15 -22 15 -30 0 -9 3 -17 8
-19 4 -1 20 -28 35 -58 16 -30 42 -79 58 -108 16 -29 27 -58 23 -63 -3 -5 -2
-8 3 -7 4 2 9 -1 10 -6 1 -5 5 -12 10 -15 8 -6 23 -31 52 -86 9 -16 23 -35 31
-42 8 -7 11 -13 5 -13 -7 0 -7 -3 0 -8 18 -13 36 -53 29 -65 -4 -7 -4 -9 1 -5
7 7 44 -33 37 -40 -1 -1 7 -12 18 -25 12 -12 19 -29 17 -39 -3 -11 0 -15 9
-11 8 3 14 -1 14 -11 0 -9 5 -16 10 -16 6 0 10 -7 10 -15 0 -8 5 -15 10 -15 6
0 10 -7 10 -15 0 -8 4 -15 9 -15 5 0 14 -13 21 -30 7 -17 16 -30 21 -30 5 0 9
-6 9 -14 0 -8 4 -16 9 -18 11 -4 66 -91 63 -101 -1 -4 2 -7 7 -7 5 0 33 -33
62 -72 29 -40 51 -73 49 -73 -2 0 13 -18 33 -40 20 -22 37 -46 37 -53 0 -7 5
-10 10 -7 5 3 10 0 10 -7 0 -7 15 -29 33 -49 17 -20 48 -56 66 -79 19 -23 41
-48 48 -56 7 -7 13 -16 13 -21 0 -4 9 -14 20 -21 11 -7 20 -19 20 -28 0 -8 5
-12 10 -9 6 3 10 2 10 -4 0 -5 15 -25 32 -44 66 -69 88 -95 88 -102 0 -3 -5
-3 -12 1 -7 4 -8 3 -4 -5 4 -6 12 -9 17 -5 5 3 24 -11 42 -31 17 -21 46 -52
64 -70 18 -18 29 -35 26 -39 -3 -3 -1 -6 6 -6 7 0 55 -42 105 -92 145 -145
235 -228 246 -228 6 0 8 -4 5 -10 -3 -5 -2 -10 2 -10 14 0 88 -68 88 -82 0 -7
7 -13 16 -13 10 0 31 -15 48 -32 17 -18 31 -30 31 -27 0 4 17 -10 37 -30 21
-20 41 -36 45 -36 7 0 51 -37 104 -86 13 -12 25 -19 28 -16 3 3 6 0 6 -6 0 -7
5 -12 11 -12 16 0 39 -26 31 -35 -4 -5 -2 -5 4 -2 10 6 31 -8 87 -55 11 -10
24 -18 29 -18 5 0 6 -5 2 -12 -4 -7 -3 -8 4 -4 7 4 22 -2 34 -13 12 -12 28
-21 35 -21 8 0 12 -4 9 -9 -3 -5 8 -14 24 -21 17 -7 30 -16 30 -21 0 -5 7 -9
15 -9 8 0 15 -4 15 -10 0 -5 6 -10 13 -10 8 0 22 -9 32 -20 10 -11 24 -20 32
-20 7 0 13 -4 13 -10 0 -5 7 -10 16 -10 8 0 12 -4 9 -10 -3 -5 3 -10 14 -10
12 0 21 -4 21 -10 0 -5 5 -10 11 -10 5 0 37 -18 69 -40 32 -22 64 -40 69 -40
6 0 11 -4 11 -10 0 -5 7 -10 15 -10 8 0 15 -4 15 -10 0 -5 7 -10 15 -10 8 0
15 -5 15 -11 0 -5 4 -8 9 -4 5 3 12 1 16 -5 3 -5 26 -19 50 -30 24 -11 49 -26
57 -33 7 -7 37 -24 66 -37 28 -13 52 -27 52 -32 0 -4 9 -8 19 -8 11 0 21 -4
23 -8 1 -4 29 -20 61 -36 31 -15 55 -31 53 -35 -3 -4 5 -7 17 -7 12 1 21 -4
20 -11 -2 -7 3 -10 11 -7 8 3 17 0 21 -5 3 -6 11 -9 16 -6 5 4 9 1 9 -5 0 -6
4 -8 10 -5 5 3 10 1 10 -4 0 -6 6 -11 13 -11 6 0 32 -10 57 -22 25 -11 53 -25
62 -30 10 -4 26 -12 35 -17 10 -5 35 -16 56 -25 20 -9 54 -23 75 -32 20 -9 48
-22 62 -29 14 -7 27 -13 30 -12 3 0 21 -7 40 -15 41 -18 103 -43 110 -43 3 0
16 -7 30 -15 14 -7 27 -14 30 -14 3 -1 4 -4 3 -8 -2 -4 4 -5 12 -2 8 4 23 3
32 -2 10 -4 23 -8 28 -9 6 0 9 -7 7 -15 -2 -10 0 -11 11 -2 10 9 19 8 35 -4
12 -8 27 -12 32 -9 6 3 10 1 10 -4 0 -6 8 -11 17 -11 15 0 47 -10 123 -38 8
-3 18 -4 22 -4 5 1 8 -3 8 -9 0 -6 6 -9 12 -6 7 2 24 0 38 -6 34 -13 149 -47
180 -53 13 -3 27 -10 31 -15 3 -6 10 -9 15 -7 14 4 133 -25 129 -32 -2 -3 6
-6 18 -7 12 0 31 -3 42 -5 11 -3 37 -8 58 -13 20 -4 37 -10 37 -14 0 -4 14 -6
30 -5 17 1 32 -2 35 -7 3 -4 13 -5 22 -2 9 4 14 2 10 -3 -3 -5 7 -9 21 -8 38
1 63 -7 56 -18 -5 -7 0 -7 12 0 10 6 25 7 34 2 8 -4 31 -10 50 -13 19 -4 44
-8 55 -11 11 -2 28 -5 38 -5 12 -1 16 -5 11 -13 -5 -8 -1 -8 10 1 10 9 20 11
24 5 4 -5 16 -9 27 -10 18 -1 69 -7 150 -20 17 -3 42 -6 57 -7 16 -1 28 -5 28
-8 0 -3 12 -4 28 -1 25 5 26 4 12 -14 -14 -19 -14 -19 8 0 20 18 27 15 23 -8
-1 -5 5 -4 13 4 13 10 19 10 33 -1 13 -11 15 -11 9 -1 -6 11 -1 12 25 7 51 -9
84 -12 192 -20 54 -3 108 -9 120 -12 35 -8 837 -12 890 -3 32 4 47 3 47 -4 0
-8 3 -8 8 -1 4 6 28 11 55 10 26 0 47 5 47 10 0 6 4 4 9 -4 6 -9 11 -10 15 -2
4 6 13 8 19 4 18 -11 38 -12 31 -2 -3 5 14 9 38 10 41 0 60 3 121 14 20 3 26
1 21 -8 -6 -9 -5 -9 7 0 8 7 24 12 34 12 11 0 36 2 55 6 19 4 49 8 67 9 18 1
35 5 39 9 4 4 14 1 22 -6 13 -9 14 -9 8 1 -5 8 0 12 16 13 46 2 75 6 92 12 12
5 15 3 10 -6 -6 -8 -3 -8 9 1 9 8 21 11 27 7 5 -3 10 0 10 7 0 10 2 10 9 -1 5
-8 11 -9 15 -3 5 9 67 25 106 27 8 0 20 4 27 8 6 4 14 3 18 -3 3 -5 12 -10 18
-10 7 0 6 4 -3 10 -13 9 -13 10 0 11 8 0 28 3 43 5 21 4 27 2 22 -8 -4 -7 0
-5 9 6 8 10 19 15 25 12 5 -4 12 -2 15 3 3 4 16 9 28 9 25 1 43 5 71 15 40 16
48 17 41 5 -5 -7 -3 -8 7 -2 8 5 16 9 19 10 3 0 12 4 20 7 33 14 158 43 178
42 12 -1 19 2 17 6 -3 4 2 10 11 13 10 4 13 2 8 -7 -6 -9 -5 -9 7 0 9 7 26 15
40 17 13 3 25 5 27 7 1 1 5 2 10 3 4 1 13 5 21 10 11 7 12 6 6 -5 -5 -9 -1 -8
11 3 10 9 21 16 24 16 3 0 25 5 50 12 25 7 50 13 55 15 11 2 41 13 70 25 46
19 115 38 115 32 0 -4 4 -2 8 3 11 16 73 36 66 22 -3 -7 0 -5 8 4 7 9 21 15
31 13 9 -1 17 1 17 6 0 4 28 18 63 30 34 12 80 31 102 41 23 11 51 21 63 22
12 1 22 5 22 10 0 4 5 5 10 2 6 -3 10 -1 10 5 0 6 5 8 10 5 6 -3 10 -1 10 6 0
7 3 10 6 7 3 -4 37 9 76 29 39 19 79 35 89 36 11 1 19 4 19 7 0 4 29 19 65 35
36 16 65 33 65 38 0 4 4 6 8 3 5 -3 23 4 41 15 19 11 40 18 47 15 8 -3 13 -1
11 4 -3 14 91 59 97 46 2 -6 5 -3 5 8 1 12 6 16 17 12 8 -3 13 -2 10 3 -7 11
22 23 36 14 7 -4 8 -1 3 7 -6 10 -4 12 9 7 9 -4 15 -3 11 2 -3 5 17 20 45 34
31 15 50 21 51 14 0 -7 4 -2 9 11 9 21 24 27 60 23 13 -2 13 -1 0 8 -12 8 -11
11 5 17 11 4 37 18 57 32 21 13 42 21 49 16 7 -4 10 -3 6 3 -4 5 6 16 21 24
15 8 29 16 32 19 16 17 91 59 85 48 -8 -13 18 9 52 44 9 9 21 14 28 12 7 -3
15 2 19 11 3 9 10 14 15 11 5 -3 12 1 15 10 4 9 9 14 13 10 3 -3 12 3 20 14 8
11 21 20 29 20 8 0 14 4 14 9 0 10 37 24 60 22 11 0 11 1 2 5 -10 5 -10 9 -1
20 6 8 15 11 20 8 5 -3 9 0 9 6 0 7 7 10 14 7 11 -4 13 -1 9 10 -4 11 -2 14 5
9 7 -4 12 -2 12 5 0 7 3 9 6 6 4 -4 15 3 25 14 10 12 23 18 30 13 7 -4 9 -3 5
4 -3 6 10 20 30 33 20 12 44 31 54 41 11 12 24 17 31 13 7 -5 10 -4 5 3 -6 11
44 52 69 56 8 1 18 6 22 11 4 4 2 5 -4 1 -7 -4 -13 -2 -13 3 0 6 6 11 13 11 7
0 20 9 30 20 10 12 23 18 29 14 7 -4 8 -3 4 4 -8 13 28 35 39 24 3 -4 6 -2 5
3 -5 21 0 36 9 30 6 -3 14 3 20 12 6 10 11 14 11 10 0 -4 14 8 31 28 23 26 37
34 53 30 11 -2 15 -2 7 1 -9 5 -1 18 29 45 23 22 47 39 52 39 5 0 6 5 2 12 -5
7 -2 9 8 5 11 -4 18 1 21 15 4 14 11 19 22 14 9 -3 13 -2 10 4 -6 9 48 70 62
70 3 0 22 18 40 40 19 22 39 38 44 34 5 -3 8 0 7 8 -2 7 3 12 10 10 6 -1 12 4
12 12 0 22 19 29 38 14 15 -12 16 -11 4 4 -15 19 -7 42 10 32 6 -4 8 -3 5 2
-3 6 12 25 33 43 22 19 37 39 33 45 -3 6 -3 8 1 4 7 -6 45 30 105 100 11 13
23 23 28 23 4 -1 8 3 8 8 0 5 15 23 32 40 18 17 30 31 27 31 -4 0 9 15 27 33
19 17 45 47 58 65 13 19 29 31 37 28 7 -3 16 -1 19 5 4 5 3 9 -2 8 -21 -4 -20
3 5 30 15 16 38 43 52 61 38 50 51 61 61 55 5 -4 7 0 4 7 -6 17 21 52 33 44 6
-4 8 3 4 16 -4 17 -2 20 11 15 11 -4 15 -1 12 14 -3 17 5 23 26 21 4 -1 6 6 5
16 0 9 5 16 12 14 6 -1 12 1 11 5 -3 24 16 53 35 53 17 0 18 2 6 10 -13 8 -8
14 11 12 4 -1 6 6 5 16 0 9 5 16 12 14 6 -1 11 1 10 5 -4 17 26 63 41 64 10 0
11 2 4 6 -8 3 -1 15 20 35 17 17 25 27 17 24 -8 -4 -6 1 6 11 11 10 18 25 16
32 -3 8 0 11 6 7 7 -4 14 4 18 19 3 14 10 25 15 25 5 0 9 5 9 10 0 11 9 24 42
60 9 10 14 21 10 24 -3 3 0 6 6 6 7 0 11 3 11 8 -4 23 3 34 17 28 9 -3 12 -2
9 5 -4 5 1 22 11 37 10 15 19 29 19 32 5 23 43 69 54 65 11 -5 12 -3 1 10 -8
10 -9 15 -1 15 6 0 11 7 11 15 0 8 7 15 16 15 8 0 12 5 9 10 -4 6 -1 17 5 25
7 8 9 15 6 15 -4 0 -1 6 6 14 7 8 16 12 20 9 4 -2 5 3 2 11 -3 9 -1 16 5 16 6
0 10 3 10 8 -4 19 27 72 39 67 7 -2 10 -1 7 4 -6 10 14 62 28 72 5 3 9 10 10
15 1 5 5 8 8 7 4 -1 6 3 6 10 -1 26 26 77 41 77 15 0 15 2 2 10 -14 9 -7 14
13 11 5 -1 6 2 3 7 -7 11 15 72 26 72 4 0 8 9 8 20 0 11 9 29 19 39 11 11 17
22 13 25 -3 4 3 13 14 22 10 8 13 13 7 9 -20 -10 -15 2 10 26 12 12 17 19 10
15 -8 -4 -7 2 2 21 8 15 15 33 15 39 0 6 7 17 15 24 8 7 12 16 9 21 -3 5 -1 9
5 9 6 0 8 7 5 15 -4 8 1 17 9 21 9 3 13 12 10 21 -5 12 -3 14 7 8 9 -6 11 -4
6 4 -5 7 0 21 11 33 10 12 12 18 6 14 -9 -5 -11 -2 -7 8 3 9 11 16 17 16 6 0
7 3 4 7 -4 3 1 15 10 26 10 11 12 17 5 13 -12 -7 -12 -4 -1 15 7 13 12 27 11
31 -1 5 2 8 6 8 4 0 8 10 9 22 1 11 7 24 13 28 7 4 11 10 11 14 -3 14 13 63
31 94 11 20 13 30 6 26 -7 -4 -4 2 6 14 11 12 17 22 14 22 -6 0 22 84 51 155
7 17 15 44 18 60 3 17 9 35 13 40 4 6 11 24 15 40 5 17 9 33 10 38 2 4 3 12 4
18 0 5 7 7 14 3 6 -4 9 -4 5 1 -4 4 -2 15 5 23 9 13 9 14 0 8 -14 -8 -17 3 -7
29 5 13 8 14 15 3 5 -8 7 -1 5 17 -2 17 3 47 10 68 7 20 11 37 7 37 -3 0 0 7
7 15 7 8 10 15 7 15 -4 0 1 19 9 43 9 23 17 53 19 67 4 36 15 82 21 92 3 4 7
24 10 45 2 20 11 49 18 65 8 16 10 25 4 22 -7 -4 -8 -2 -4 4 7 11 13 33 21 77
2 11 6 31 9 45 7 29 19 109 19 128 0 7 6 11 13 8 12 -5 13 18 1 30 -4 4 1 13
11 21 9 8 11 12 5 8 -9 -4 -13 1 -13 15 0 12 4 19 8 16 4 -2 6 11 4 30 -4 33
4 42 24 27 5 -5 2 -1 -8 8 -9 9 -14 20 -10 23 3 4 7 15 7 24 1 9 2 30 3 45 1
16 6 26 11 22 5 -3 13 -1 16 5 4 6 1 9 -7 8 -7 -2 -11 4 -9 12 2 8 4 30 4 48
1 27 5 32 19 29 10 -3 16 -1 12 4 -3 5 -12 9 -20 9 -8 0 -13 4 -10 8 3 5 8 37
12 73 4 35 8 71 10 79 1 8 3 23 3 33 1 12 5 16 14 11 8 -6 8 -3 -1 9 -15 18
-7 41 11 30 7 -3 3 3 -7 15 -11 13 -14 22 -7 22 8 0 9 5 1 19 -5 11 -6 22 -1
25 4 3 6 18 4 33 -4 23 -2 25 7 13 10 -13 11 -13 6 2 -3 10 -9 25 -13 35 -4 9
-2 14 3 10 6 -3 10 164 10 459 0 255 -2 464 -5 464 -10 0 -7 74 3 89 6 9 5 12
-1 8 -6 -4 -13 2 -16 13 -3 11 -1 18 3 15 9 -6 7 11 -5 38 -9 22 1 50 16 41 8
-4 9 -3 5 5 -4 6 -11 9 -16 6 -12 -8 -18 43 -6 56 8 9 8 10 -2 5 -10 -6 -12 0
-9 21 2 15 0 34 -6 41 -5 6 -7 12 -4 12 3 0 1 16 -3 35 -5 22 -4 35 2 35 7 0
7 4 1 13 -6 6 -10 24 -9 40 1 15 -2 27 -7 27 -5 0 -3 8 4 17 10 11 10 14 2 9
-9 -5 -13 1 -14 21 0 15 -2 35 -4 43 -1 8 -6 35 -10 60 -4 25 -9 54 -11 65
-15 84 -18 103 -18 123 -1 12 -3 22 -6 22 -6 0 -11 26 -13 73 -1 15 -4 27 -7
27 -6 0 -12 37 -14 87 0 17 -4 29 -7 27 -4 -2 -12 23 -19 56 -11 50 -10 63 1
77 12 16 12 17 -1 6 -13 -10 -19 3 -44 100 -28 114 -43 166 -76 270 -11 31
-15 55 -10 52 5 -3 3 7 -4 22 -29 57 -37 79 -39 101 0 12 -5 22 -10 22 -5 0
-3 8 4 17 8 9 9 14 2 10 -7 -5 -16 6 -23 30 -7 21 -16 43 -21 49 -5 6 -3 16 4
24 9 10 9 11 0 6 -7 -4 -14 -2 -14 3 -2 18 -5 24 -23 66 -9 21 -18 46 -20 55
-2 8 -8 28 -15 43 -6 16 -8 33 -5 39 4 7 2 8 -4 4 -7 -4 -13 -2 -13 3 -2 18
-5 24 -22 65 -10 22 -15 46 -12 53 2 8 1 12 -4 9 -10 -7 -45 70 -44 96 0 10
-4 15 -8 12 -5 -3 -9 0 -9 6 0 7 -11 35 -25 62 -14 27 -23 54 -19 59 3 5 1 9
-5 9 -5 0 -15 16 -22 35 -7 19 -17 35 -22 35 -5 0 -3 8 4 17 8 9 9 14 3 10
-14 -8 -39 37 -29 52 3 7 1 10 -6 9 -7 -2 -15 5 -17 16 -3 13 0 16 10 11 7 -5
10 -4 5 1 -5 5 -14 9 -20 9 -7 0 -13 10 -15 23 -2 12 -8 22 -13 22 -5 0 -9 9
-9 19 0 11 -3 21 -7 23 -5 2 -18 23 -31 48 -55 106 -87 165 -93 170 -3 3 -13
21 -22 40 -10 19 -31 58 -48 85 -16 28 -35 60 -41 73 -6 12 -15 22 -20 22 -5
0 -7 4 -4 9 3 4 -6 21 -19 37 -14 16 -23 35 -20 42 2 6 0 12 -6 12 -6 0 -7 5
-4 10 4 6 2 9 -5 8 -6 -2 -18 11 -28 27 -9 17 -19 32 -22 35 -3 3 -20 28 -38
55 -17 28 -35 55 -40 61 -5 5 -15 21 -22 34 -7 13 -21 33 -31 44 -11 11 -19
23 -19 28 0 4 -7 16 -16 26 -45 49 -63 77 -53 81 6 2 0 9 -13 15 -12 7 -22 18
-21 24 2 7 -2 12 -8 12 -5 0 -7 5 -3 12 4 7 3 8 -4 4 -6 -4 -16 4 -23 16 -7
12 -18 29 -26 36 -7 8 -10 18 -7 24 4 7 2 8 -4 4 -13 -8 -35 28 -24 39 4 5 2
6 -4 2 -5 -3 -19 6 -30 20 -10 15 -25 32 -31 39 -7 7 -13 21 -13 31 0 15 -2
16 -11 3 -9 -12 -10 -11 -6 7 3 15 1 20 -9 16 -8 -3 -14 -1 -14 4 0 6 -14 24
-30 42 -17 17 -28 31 -25 31 3 0 -14 20 -38 44 -23 25 -53 59 -67 76 -14 18
-35 41 -48 53 -12 12 -20 27 -17 35 3 7 0 10 -6 7 -12 -8 -41 14 -33 26 3 5
-1 9 -9 9 -15 0 -32 27 -28 45 2 6 -1 7 -4 3 -8 -8 -291 272 -288 284 2 4 -3
5 -10 2 -7 -2 -19 7 -27 21 -7 14 -15 23 -18 20 -2 -2 -11 3 -20 11 -13 14
-13 17 -1 25 10 7 7 8 -11 7 -16 -2 -24 2 -22 10 1 8 -2 11 -6 8 -12 -7 -44
28 -35 39 5 4 3 5 -3 2 -7 -4 -26 5 -42 21 -17 15 -52 45 -78 67 -26 22 -56
48 -66 58 -10 9 -22 17 -26 17 -4 0 -14 9 -22 20 -8 11 -20 20 -28 20 -7 0
-10 5 -7 10 3 6 1 10 -4 10 -10 0 -29 14 -65 45 -6 6 -56 44 -111 85 -129 97
-135 102 -129 112 3 4 -2 5 -10 2 -13 -5 -33 7 -81 51 -13 11 -29 21 -36 23
-8 2 -15 8 -17 13 -2 5 -10 9 -18 9 -8 0 -14 4 -14 9 0 5 -13 14 -30 21 -16 7
-30 16 -30 21 0 5 -7 9 -15 9 -8 0 -15 5 -15 10 0 6 -7 10 -15 10 -8 0 -15 5
-15 10 0 6 -4 10 -10 10 -9 0 -123 69 -147 90 -7 5 -17 10 -23 10 -5 0 -10 4
-10 9 0 5 -11 12 -24 15 -14 3 -31 12 -38 19 -7 6 -26 19 -43 27 -16 8 -32 17
-35 20 -3 3 -25 16 -50 29 -25 14 -48 29 -51 34 -3 5 -10 9 -15 9 -19 1 -94
40 -89 47 2 4 -1 8 -8 8 -27 0 -97 38 -98 52 0 9 -3 11 -5 4 -3 -7 -25 -1 -64
19 -33 17 -57 35 -54 39 3 5 -2 6 -11 3 -8 -4 -26 1 -40 10 -14 9 -25 14 -25
11 0 -4 -13 3 -30 15 -16 12 -30 19 -30 15 0 -3 -17 3 -37 13 -70 37 -152 73
-174 77 -12 3 -26 10 -31 17 -4 7 -8 9 -8 5 0 -4 -10 -2 -22 5 -13 7 -25 13
-28 13 -3 1 -18 7 -33 13 -16 7 -32 12 -36 12 -4 0 -26 9 -49 20 -22 11 -49
20 -60 20 -10 0 -24 6 -30 13 -7 6 -16 12 -20 13 -34 5 -73 18 -78 25 -3 5
-16 9 -30 9 -13 0 -24 4 -24 8 0 4 -12 9 -26 10 -15 1 -32 6 -39 12 -6 5 -14
8 -17 5 -3 -3 -11 1 -17 9 -7 8 -18 13 -25 10 -7 -3 -26 1 -42 8 -16 6 -33 13
-39 13 -5 1 -18 5 -27 9 -9 4 -22 9 -30 10 -7 1 -33 9 -58 16 -25 7 -48 13
-52 12 -5 -1 -8 3 -8 9 0 5 -5 7 -10 4 -6 -4 -24 0 -40 9 -17 8 -27 10 -24 4
4 -7 0 -7 -12 0 -20 10 -120 35 -141 35 -7 0 -13 5 -13 10 0 6 -3 8 -6 5 -3
-4 -20 -2 -37 3 -18 6 -47 12 -66 15 -19 3 -42 10 -50 17 -12 10 -13 9 -6 -3
7 -11 2 -10 -19 4 -16 10 -25 13 -22 7 5 -8 0 -8 -18 -1 -14 5 -26 7 -26 4 0
-4 -6 -1 -13 5 -8 6 -16 9 -18 6 -3 -2 -32 2 -64 10 -33 8 -72 14 -87 15 -16
0 -28 4 -28 8 0 5 -14 6 -31 4 -25 -4 -30 -2 -24 9 7 11 6 12 -7 2 -8 -7 -18
-10 -21 -6 -4 3 -21 8 -39 9 -18 2 -44 6 -58 8 -56 10 -108 17 -159 22 -71 7
-75 7 -83 19 -5 6 -8 5 -8 -3 0 -9 -5 -10 -17 -4 -10 5 -24 7 -32 4 -9 -3 -11
0 -6 8 6 9 4 11 -5 5 -13 -8 -51 -8 -130 1 -168 18 -832 26 -1022 13 -49 -3
-82 -1 -89 5 -9 8 -10 8 -5 -1z"/>
<path d="M8476 14142 c-3 -5 1 -9 9 -9 8 0 12 4 9 9 -3 4 -7 8 -9 8 -2 0 -6
-4 -9 -8z"/>
<path d="M4830 13876 c0 -2 8 -10 18 -17 15 -13 16 -12 3 4 -13 16 -21 21 -21
13z"/>
<path d="M9630 13796 c0 -2 8 -10 18 -17 15 -13 16 -12 3 4 -13 16 -21 21 -21
13z"/>
<path d="M9833 13775 c0 -8 4 -12 9 -9 5 3 6 10 3 15 -9 13 -12 11 -12 -6z"/>
<path d="M9859 13653 c-13 -16 -12 -17 4 -4 16 13 21 21 13 21 -2 0 -10 -8
-17 -17z"/>
<path d="M4146 13622 c-3 -5 1 -9 9 -9 8 0 12 4 9 9 -3 4 -7 8 -9 8 -2 0 -6
-4 -9 -8z"/>
<path d="M3906 13502 c-3 -5 1 -9 9 -9 8 0 12 4 9 9 -3 4 -7 8 -9 8 -2 0 -6
-4 -9 -8z"/>
<path d="M10705 13220 c-3 -6 1 -7 9 -4 18 7 21 14 7 14 -6 0 -13 -4 -16 -10z"/>
<path d="M10990 13140 c0 -5 5 -10 11 -10 5 0 7 5 4 10 -3 6 -8 10 -11 10 -2
0 -4 -4 -4 -10z"/>
<path d="M2946 12978 c3 -5 10 -6 15 -3 13 9 11 12 -6 12 -8 0 -12 -4 -9 -9z"/>
<path d="M2610 12746 c0 -2 7 -7 16 -10 8 -3 12 -2 9 4 -6 10 -25 14 -25 6z"/>
<path d="M2376 12573 c-6 -14 -5 -15 5 -6 7 7 10 15 7 18 -3 3 -9 -2 -12 -12z"/>
<path d="M11835 12420 c3 -5 8 -10 11 -10 2 0 4 5 4 10 0 6 -5 10 -11 10 -5 0
-7 -4 -4 -10z"/>
<path d="M2027 12219 c7 -7 15 -10 18 -7 3 3 -2 9 -12 12 -14 6 -15 5 -6 -5z"/>
<path d="M2075 12189 c-4 -6 -5 -12 -2 -15 2 -3 7 2 10 11 7 17 1 20 -8 4z"/>
<path d="M12155 12109 c-4 -6 -5 -12 -2 -15 2 -3 7 2 10 11 7 17 1 20 -8 4z"/>
<path d="M1500 11586 c0 -2 8 -10 18 -17 15 -13 16 -12 3 4 -13 16 -21 21 -21
13z"/>
<path d="M13107 11099 c7 -7 15 -10 18 -7 3 3 -2 9 -12 12 -14 6 -15 5 -6 -5z"/>
<path d="M1076 11067 c3 -10 9 -15 12 -12 3 3 0 11 -7 18 -10 9 -11 8 -5 -6z"/>
<path d="M1150 11076 c0 -2 8 -10 18 -17 15 -13 16 -12 3 4 -13 16 -21 21 -21
13z"/>
<path d="M13035 11009 c-4 -6 -5 -12 -2 -15 2 -3 7 2 10 11 7 17 1 20 -8 4z"/>
<path d="M1030 10981 c0 -6 4 -13 10 -16 6 -3 7 1 4 9 -7 18 -14 21 -14 7z"/>
<path d="M13240 10940 c-9 -6 -10 -10 -3 -10 6 0 15 5 18 10 8 12 4 12 -15 0z"/>
<path d="M1029 10903 c-13 -16 -12 -17 4 -4 16 13 21 21 13 21 -2 0 -10 -8
-17 -17z"/>
<path d="M13430 10746 c0 -2 7 -7 16 -10 8 -3 12 -2 9 4 -6 10 -25 14 -25 6z"/>
<path d="M13267 10619 c7 -7 15 -10 18 -7 3 3 -2 9 -12 12 -14 6 -15 5 -6 -5z"/>
<path d="M13390 10621 c0 -6 4 -13 10 -16 6 -3 7 1 4 9 -7 18 -14 21 -14 7z"/>
<path d="M13480 10540 c-9 -6 -10 -10 -3 -10 6 0 15 5 18 10 8 12 4 12 -15 0z"/>
<path d="M13430 10420 c0 -5 5 -10 11 -10 5 0 7 5 4 10 -3 6 -8 10 -11 10 -2
0 -4 -4 -4 -10z"/>
<path d="M13655 10191 c-3 -5 -2 -12 3 -15 5 -3 9 1 9 9 0 17 -3 19 -12 6z"/>
<path d="M475 10069 c-4 -6 -5 -12 -2 -15 2 -3 7 2 10 11 7 17 1 20 -8 4z"/>
<path d="M13870 9941 c0 -6 4 -13 10 -16 6 -3 7 1 4 9 -7 18 -14 21 -14 7z"/>
<path d="M13875 9660 c-3 -5 -1 -10 4 -10 6 0 11 5 11 10 0 6 -2 10 -4 10 -3
0 -8 -4 -11 -10z"/>
<path d="M13755 9629 c-4 -6 -5 -12 -2 -15 2 -3 7 2 10 11 7 17 1 20 -8 4z"/>
<path d="M13915 9091 c-3 -5 -2 -12 3 -15 5 -3 9 1 9 9 0 17 -3 19 -12 6z"/>
<path d="M60 8826 c0 -2 8 -10 18 -17 15 -13 16 -12 3 4 -13 16 -21 21 -21 13z"/>
<path d="M14149 8463 c-13 -16 -12 -17 4 -4 9 7 17 15 17 17 0 8 -8 3 -21 -13z"/>
<path d="M86 8422 c-3 -5 1 -9 9 -9 8 0 12 4 9 9 -3 4 -7 8 -9 8 -2 0 -6 -4
-9 -8z"/>
<path d="M14110 8243 c0 -6 8 -17 18 -24 16 -13 16 -13 2 6 -8 11 -16 22 -17
24 -2 2 -3 0 -3 -6z"/>
<path d="M14156 6338 c3 -5 10 -6 15 -3 13 9 11 12 -6 12 -8 0 -12 -4 -9 -9z"/>
<path d="M14155 6300 c3 -5 8 -10 11 -10 2 0 4 5 4 10 0 6 -5 10 -11 10 -5 0
-7 -4 -4 -10z"/>
<path d="M14153 6055 c0 -8 4 -12 9 -9 5 3 6 10 3 15 -9 13 -12 11 -12 -6z"/>
<path d="M14150 5876 c0 -2 8 -10 18 -17 15 -13 16 -12 3 4 -13 16 -21 21 -21
13z"/>
<path d="M14130 5799 c0 -5 5 -7 10 -4 6 3 10 8 10 11 0 2 -4 4 -10 4 -5 0
-10 -5 -10 -11z"/>
<path d="M14073 5725 c0 -8 4 -12 9 -9 5 3 6 10 3 15 -9 13 -12 11 -12 -6z"/>
<path d="M14110 5659 c0 -5 5 -7 10 -4 6 3 10 8 10 11 0 2 -4 4 -10 4 -5 0
-10 -5 -10 -11z"/>
<path d="M14150 5661 c0 -6 4 -13 10 -16 6 -3 7 1 4 9 -7 18 -14 21 -14 7z"/>
<path d="M14073 5625 c0 -8 4 -12 9 -9 5 3 6 10 3 15 -9 13 -12 11 -12 -6z"/>
<path d="M14110 5540 c0 -5 5 -10 10 -10 6 0 10 5 10 10 0 6 -4 10 -10 10 -5
0 -10 -4 -10 -10z"/>
<path d="M14136 5482 c-3 -5 1 -9 9 -9 8 0 12 4 9 9 -3 4 -7 8 -9 8 -2 0 -6
-4 -9 -8z"/>
<path d="M14050 5439 c0 -5 5 -7 10 -4 6 3 10 8 10 11 0 2 -4 4 -10 4 -5 0
-10 -5 -10 -11z"/>
<path d="M159 5413 c-13 -16 -12 -17 4 -4 16 13 21 21 13 21 -2 0 -10 -8 -17
-17z"/>
<path d="M14090 5400 c0 -5 5 -10 11 -10 5 0 7 5 4 10 -3 6 -8 10 -11 10 -2 0
-4 -4 -4 -10z"/>
<path d="M13996 5387 c3 -10 9 -15 12 -12 3 3 0 11 -7 18 -10 9 -11 8 -5 -6z"/>
<path d="M14030 5339 c0 -5 5 -7 10 -4 6 3 10 8 10 11 0 2 -4 4 -10 4 -5 0
-10 -5 -10 -11z"/>
<path d="M14027 5299 c7 -7 15 -10 18 -7 3 3 -2 9 -12 12 -14 6 -15 5 -6 -5z"/>
<path d="M14073 5295 c0 -8 4 -12 9 -9 4 3 8 9 8 15 0 5 -4 9 -8 9 -5 0 -9 -7
-9 -15z"/>
<path d="M14030 5261 c0 -6 4 -13 10 -16 6 -3 7 1 4 9 -7 18 -14 21 -14 7z"/>
<path d="M13956 5222 c-3 -5 1 -9 9 -9 8 0 12 4 9 9 -3 4 -7 8 -9 8 -2 0 -6
-4 -9 -8z"/>
<path d="M14035 5199 c-3 -4 2 -6 10 -5 21 3 28 13 10 13 -9 0 -18 -4 -20 -8z"/>
<path d="M13959 5133 c-13 -16 -12 -17 4 -4 9 7 17 15 17 17 0 8 -8 3 -21 -13z"/>
<path d="M13930 5039 c0 -5 5 -7 10 -4 6 3 10 8 10 11 0 2 -4 4 -10 4 -5 0
-10 -5 -10 -11z"/>
<path d="M13974 5016 c1 -8 5 -18 8 -22 4 -3 5 1 4 10 -1 8 -5 18 -8 22 -4 3
-5 -1 -4 -10z"/>
<path d="M14035 5011 c-3 -5 -2 -12 3 -15 5 -3 9 1 9 9 0 17 -3 19 -12 6z"/>
<path d="M13930 4999 c0 -5 5 -7 10 -4 6 3 10 8 10 11 0 2 -4 4 -10 4 -5 0
-10 -5 -10 -11z"/>
<path d="M13974 4956 c1 -8 5 -18 8 -22 4 -3 5 1 4 10 -1 8 -5 18 -8 22 -4 3
-5 -1 -4 -10z"/>
<path d="M13913 4945 c0 -8 4 -12 9 -9 5 3 6 10 3 15 -9 13 -12 11 -12 -6z"/>
<path d="M13875 4940 c3 -5 8 -10 11 -10 2 0 4 5 4 10 0 6 -5 10 -11 10 -5 0
-7 -4 -4 -10z"/>
<path d="M13915 4879 c-3 -4 2 -6 10 -5 21 3 28 13 10 13 -9 0 -18 -4 -20 -8z"/>
<path d="M13976 4878 c3 -5 10 -6 15 -3 13 9 11 12 -6 12 -8 0 -12 -4 -9 -9z"/>
<path d="M13935 4851 c-3 -5 -2 -12 3 -15 5 -3 9 1 9 9 0 17 -3 19 -12 6z"/>
<path d="M13890 4840 c0 -5 5 -10 11 -10 5 0 7 5 4 10 -3 6 -8 10 -11 10 -2 0
-4 -4 -4 -10z"/>
<path d="M13895 4799 c-3 -4 2 -6 10 -5 21 3 28 13 10 13 -9 0 -18 -4 -20 -8z"/>
<path d="M14076 4778 c3 -5 10 -6 15 -3 13 9 11 12 -6 12 -8 0 -12 -4 -9 -9z"/>
<path d="M13915 4760 c3 -5 8 -10 11 -10 2 0 4 5 4 10 0 6 -5 10 -11 10 -5 0
-7 -4 -4 -10z"/>
<path d="M307 4739 c7 -7 15 -10 18 -7 3 3 -2 9 -12 12 -14 6 -15 5 -6 -5z"/>
<path d="M13775 4701 c-3 -5 -2 -12 3 -15 5 -3 9 1 9 9 0 17 -3 19 -12 6z"/>
<path d="M13896 4678 c3 -5 10 -6 15 -3 13 9 11 12 -6 12 -8 0 -12 -4 -9 -9z"/>
<path d="M13856 4602 c-3 -5 1 -9 9 -9 8 0 12 4 9 9 -3 4 -7 8 -9 8 -2 0 -6
-4 -9 -8z"/>
<path d="M13790 4565 c0 -7 30 -13 34 -7 3 4 -4 9 -15 9 -10 1 -19 0 -19 -2z"/>
<path d="M13794 4522 c4 -3 14 -7 22 -8 9 -1 13 0 10 4 -4 3 -14 7 -22 8 -9 1
-13 0 -10 -4z"/>
<path d="M13800 4460 c8 -5 20 -10 25 -10 6 0 3 5 -5 10 -8 5 -19 10 -25 10
-5 0 -3 -5 5 -10z"/>
<path d="M13750 4426 c0 -2 7 -7 16 -10 8 -3 12 -2 9 4 -6 10 -25 14 -25 6z"/>
<path d="M13675 4380 c-3 -5 -1 -10 4 -10 6 0 11 5 11 10 0 6 -2 10 -4 10 -3
0 -8 -4 -11 -10z"/>
<path d="M13715 4380 c3 -5 8 -10 11 -10 2 0 4 5 4 10 0 6 -5 10 -11 10 -5 0
-7 -4 -4 -10z"/>
<path d="M13833 4365 c0 -8 4 -12 9 -9 5 3 6 10 3 15 -9 13 -12 11 -12 -6z"/>
<path d="M507 4259 c7 -7 15 -10 18 -7 3 3 -2 9 -12 12 -14 6 -15 5 -6 -5z"/>
<path d="M13610 4199 c0 -5 5 -7 10 -4 6 3 10 8 10 11 0 2 -4 4 -10 4 -5 0
-10 -5 -10 -11z"/>
<path d="M13655 4200 c-3 -5 -1 -10 4 -10 6 0 11 5 11 10 0 6 -2 10 -4 10 -3
0 -8 -4 -11 -10z"/>
<path d="M13610 4159 c0 -5 5 -7 10 -4 6 3 10 8 10 11 0 2 -4 4 -10 4 -5 0
-10 -5 -10 -11z"/>
<path d="M13646 4162 c-3 -5 1 -9 9 -9 8 0 12 4 9 9 -3 4 -7 8 -9 8 -2 0 -6
-4 -9 -8z"/>
<path d="M13655 4100 c-3 -5 -1 -10 4 -10 6 0 11 5 11 10 0 6 -2 10 -4 10 -3
0 -8 -4 -11 -10z"/>
<path d="M13570 4080 c0 -5 5 -10 11 -10 5 0 7 5 4 10 -3 6 -8 10 -11 10 -2 0
-4 -4 -4 -10z"/>
<path d="M13536 3962 c-2 -4 -1 -14 4 -22 7 -11 9 -9 7 8 -1 24 -3 26 -11 14z"/>
<path d="M13590 3921 c0 -6 4 -13 10 -16 6 -3 7 1 4 9 -7 18 -14 21 -14 7z"/>
<path d="M13454 3802 c4 -3 14 -7 22 -8 9 -1 13 0 10 4 -4 3 -14 7 -22 8 -9 1
-13 0 -10 -4z"/>
<path d="M13370 3759 c0 -5 5 -7 10 -4 6 3 10 8 10 11 0 2 -4 4 -10 4 -5 0
-10 -5 -10 -11z"/>
<path d="M13410 3759 c0 -5 5 -7 10 -4 6 3 10 8 10 11 0 2 -4 4 -10 4 -5 0
-10 -5 -10 -11z"/>
<path d="M13394 3722 c4 -3 14 -7 22 -8 9 -1 13 0 10 4 -4 3 -14 7 -22 8 -9 1
-13 0 -10 -4z"/>
<path d="M13789 3663 c-13 -16 -12 -17 4 -4 16 13 21 21 13 21 -2 0 -10 -8
-17 -17z"/>
<path d="M13395 3640 c3 -5 8 -10 11 -10 2 0 4 5 4 10 0 6 -5 10 -11 10 -5 0
-7 -4 -4 -10z"/>
<path d="M13295 3521 c-3 -5 -2 -12 3 -15 5 -3 9 1 9 9 0 17 -3 19 -12 6z"/>
<path d="M13286 3482 c-3 -5 1 -9 9 -9 8 0 12 4 9 9 -3 4 -7 8 -9 8 -2 0 -6
-4 -9 -8z"/>
<path d="M13295 3420 c-3 -5 -1 -10 4 -10 6 0 11 5 11 10 0 6 -2 10 -4 10 -3
0 -8 -4 -11 -10z"/>
<path d="M13155 3391 c-3 -5 -2 -12 3 -15 5 -3 9 1 9 9 0 17 -3 19 -12 6z"/>
<path d="M13250 3380 c0 -5 5 -10 11 -10 5 0 7 5 4 10 -3 6 -8 10 -11 10 -2 0
-4 -4 -4 -10z"/>
<path d="M13180 3345 c0 -2 6 -8 13 -14 10 -8 14 -7 14 2 0 8 -6 14 -14 14 -7
0 -13 -1 -13 -2z"/>
<path d="M13179 3308 c-5 -18 -6 -38 -1 -34 7 8 12 36 6 36 -2 0 -4 -1 -5 -2z"/>
<path d="M13230 3259 c0 -5 5 -7 10 -4 6 3 10 8 10 11 0 2 -4 4 -10 4 -5 0
-10 -5 -10 -11z"/>
<path d="M12986 3098 c3 -5 10 -6 15 -3 13 9 11 12 -6 12 -8 0 -12 -4 -9 -9z"/>
<path d="M13019 3048 c-5 -18 -6 -38 -1 -34 7 8 12 36 6 36 -2 0 -4 -1 -5 -2z"/>
<path d="M12870 2959 c0 -5 5 -7 10 -4 6 3 10 8 10 11 0 2 -4 4 -10 4 -5 0
-10 -5 -10 -11z"/>
<path d="M995 2949 c-4 -6 -5 -12 -2 -15 2 -3 7 2 10 11 7 17 1 20 -8 4z"/>
<path d="M12953 2945 c0 -8 4 -12 9 -9 5 3 6 10 3 15 -9 13 -12 11 -12 -6z"/>
<path d="M12897 2895 c-4 -8 -3 -16 1 -19 4 -3 9 4 9 15 2 23 -3 25 -10 4z"/>
<path d="M12855 2840 c3 -5 8 -10 11 -10 2 0 4 5 4 10 0 6 -5 10 -11 10 -5 0
-7 -4 -4 -10z"/>
<path d="M12835 2799 c-3 -4 2 -6 10 -5 21 3 28 13 10 13 -9 0 -18 -4 -20 -8z"/>
<path d="M12955 2781 c-3 -5 -2 -12 3 -15 5 -3 9 1 9 9 0 17 -3 19 -12 6z"/>
<path d="M12819 2768 c-5 -18 -6 -38 -1 -34 7 8 12 36 6 36 -2 0 -4 -1 -5 -2z"/>
<path d="M12774 2736 c1 -8 5 -18 8 -22 4 -3 5 1 4 10 -1 8 -5 18 -8 22 -4 3
-5 -1 -4 -10z"/>
<path d="M12715 2640 c-3 -5 -1 -10 4 -10 6 0 11 5 11 10 0 6 -2 10 -4 10 -3
0 -8 -4 -11 -10z"/>
<path d="M12670 2626 c0 -2 7 -7 16 -10 8 -3 12 -2 9 4 -6 10 -25 14 -25 6z"/>
<path d="M12610 2599 c0 -5 5 -7 10 -4 6 3 10 8 10 11 0 2 -4 4 -10 4 -5 0
-10 -5 -10 -11z"/>
<path d="M12656 2522 c-3 -5 1 -9 9 -9 8 0 12 4 9 9 -3 4 -7 8 -9 8 -2 0 -6
-4 -9 -8z"/>
<path d="M1635 2500 c3 -5 8 -10 11 -10 2 0 4 5 4 10 0 6 -5 10 -11 10 -5 0
-7 -4 -4 -10z"/>
<path d="M12557 2473 c-10 -9 -9 -23 1 -23 5 0 9 7 9 15 0 17 -1 18 -10 8z"/>
<path d="M12505 2460 c-3 -6 1 -7 9 -4 18 7 21 14 7 14 -6 0 -13 -4 -16 -10z"/>
<path d="M12450 2399 c0 -5 5 -7 10 -4 6 3 10 8 10 11 0 2 -4 4 -10 4 -5 0
-10 -5 -10 -11z"/>
<path d="M12450 2360 c0 -5 5 -10 11 -10 5 0 7 5 4 10 -3 6 -8 10 -11 10 -2 0
-4 -4 -4 -10z"/>
<path d="M12670 2341 c0 -6 4 -13 10 -16 6 -3 7 1 4 9 -7 18 -14 21 -14 7z"/>
<path d="M12350 2226 c0 -2 7 -7 16 -10 8 -3 12 -2 9 4 -6 10 -25 14 -25 6z"/>
<path d="M12556 2222 c-3 -5 1 -9 9 -9 8 0 12 4 9 9 -3 4 -7 8 -9 8 -2 0 -6
-4 -9 -8z"/>
<path d="M1795 2189 c-4 -6 -5 -12 -2 -15 2 -3 7 2 10 11 7 17 1 20 -8 4z"/>
<path d="M12513 2107 c0 -8 6 -14 14 -14 9 0 10 4 2 14 -6 7 -12 13 -14 13 -1
0 -2 -6 -2 -13z"/>
<path d="M12130 2080 c0 -5 5 -10 11 -10 5 0 7 5 4 10 -3 6 -8 10 -11 10 -2 0
-4 -4 -4 -10z"/>
<path d="M12175 2080 c3 -5 8 -10 11 -10 2 0 4 5 4 10 0 6 -5 10 -11 10 -5 0
-7 -4 -4 -10z"/>
<path d="M12130 2039 c0 -5 5 -7 10 -4 6 3 10 8 10 11 0 2 -4 4 -10 4 -5 0
-10 -5 -10 -11z"/>
<path d="M12000 1960 c-9 -6 -10 -10 -3 -10 6 0 15 5 18 10 8 12 4 12 -15 0z"/>
<path d="M12050 1960 c0 -5 5 -10 11 -10 5 0 7 5 4 10 -3 6 -8 10 -11 10 -2 0
-4 -4 -4 -10z"/>
<path d="M12125 1940 c-3 -6 1 -7 9 -4 18 7 21 14 7 14 -6 0 -13 -4 -16 -10z"/>
<path d="M12056 1922 c-3 -5 1 -9 9 -9 8 0 12 4 9 9 -3 4 -7 8 -9 8 -2 0 -6
-4 -9 -8z"/>
<path d="M11966 1898 c3 -5 10 -6 15 -3 13 9 11 12 -6 12 -8 0 -12 -4 -9 -9z"/>
<path d="M12014 1896 c1 -8 5 -18 8 -22 4 -3 5 1 4 10 -1 8 -5 18 -8 22 -4 3
-5 -1 -4 -10z"/>
<path d="M11906 1818 c3 -5 10 -6 15 -3 13 9 11 12 -6 12 -8 0 -12 -4 -9 -9z"/>
<path d="M11970 1820 c0 -5 5 -10 11 -10 5 0 7 5 4 10 -3 6 -8 10 -11 10 -2 0
-4 -4 -4 -10z"/>
<path d="M11855 1760 c-3 -5 -1 -10 4 -10 6 0 11 5 11 10 0 6 -2 10 -4 10 -3
0 -8 -4 -11 -10z"/>
<path d="M11935 1740 c3 -5 8 -10 11 -10 2 0 4 5 4 10 0 6 -5 10 -11 10 -5 0
-7 -4 -4 -10z"/>
<path d="M11730 1679 c0 -5 5 -7 10 -4 6 3 10 8 10 11 0 2 -4 4 -10 4 -5 0
-10 -5 -10 -11z"/>
<path d="M11766 1682 c-3 -5 1 -9 9 -9 8 0 12 4 9 9 -3 4 -7 8 -9 8 -2 0 -6
-4 -9 -8z"/>
<path d="M11810 1660 c0 -5 5 -10 11 -10 5 0 7 5 4 10 -3 6 -8 10 -11 10 -2 0
-4 -4 -4 -10z"/>
<path d="M11735 1641 c-3 -5 -2 -12 3 -15 5 -3 9 1 9 9 0 17 -3 19 -12 6z"/>
<path d="M2313 1625 c0 -8 4 -12 9 -9 5 3 6 10 3 15 -9 13 -12 11 -12 -6z"/>
<path d="M11646 1602 c-3 -5 1 -9 9 -9 8 0 12 4 9 9 -3 4 -7 8 -9 8 -2 0 -6
-4 -9 -8z"/>
<path d="M11786 1582 c-3 -5 1 -9 9 -9 8 0 12 4 9 9 -3 4 -7 8 -9 8 -2 0 -6
-4 -9 -8z"/>
<path d="M11570 1519 c0 -5 5 -7 10 -4 6 3 10 8 10 11 0 2 -4 4 -10 4 -5 0
-10 -5 -10 -11z"/>
<path d="M11614 1522 c4 -3 14 -7 22 -8 9 -1 13 0 10 4 -4 3 -14 7 -22 8 -9 1
-13 0 -10 -4z"/>
<path d="M11435 1471 c-3 -5 -2 -12 3 -15 5 -3 9 1 9 9 0 17 -3 19 -12 6z"/>
<path d="M2519 1453 c-13 -16 -12 -17 4 -4 16 13 21 21 13 21 -2 0 -10 -8 -17
-17z"/>
<path d="M11526 1438 c3 -5 10 -6 15 -3 13 9 11 12 -6 12 -8 0 -12 -4 -9 -9z"/>
<path d="M11396 1427 c3 -10 9 -15 12 -12 3 3 0 11 -7 18 -10 9 -11 8 -5 -6z"/>
<path d="M2826 1382 c-3 -5 1 -9 9 -9 8 0 12 4 9 9 -3 4 -7 8 -9 8 -2 0 -6 -4
-9 -8z"/>
<path d="M11414 1356 c1 -8 5 -18 8 -22 4 -3 5 1 4 10 -1 8 -5 18 -8 22 -4 3
-5 -1 -4 -10z"/>
<path d="M11335 1320 c-3 -5 -1 -10 4 -10 6 0 11 5 11 10 0 6 -2 10 -4 10 -3
0 -8 -4 -11 -10z"/>
<path d="M11215 1240 c-3 -5 -1 -10 4 -10 6 0 11 5 11 10 0 6 -2 10 -4 10 -3
0 -8 -4 -11 -10z"/>
<path d="M2949 1223 c-13 -16 -12 -17 4 -4 9 7 17 15 17 17 0 8 -8 3 -21 -13z"/>
<path d="M11115 1231 c-3 -5 -2 -12 3 -15 5 -3 9 1 9 9 0 17 -3 19 -12 6z"/>
<path d="M11139 1188 c-5 -18 -6 -38 -1 -34 7 8 12 36 6 36 -2 0 -4 -1 -5 -2z"/>
<path d="M11130 1106 c0 -2 7 -7 16 -10 8 -3 12 -2 9 4 -6 10 -25 14 -25 6z"/>
<path d="M11026 1065 c-11 -8 -15 -15 -9 -15 6 0 16 7 23 15 16 19 11 19 -14
0z"/>
<path d="M11416 1067 c3 -10 9 -15 12 -12 3 3 0 11 -7 18 -10 9 -11 8 -5 -6z"/>
<path d="M11070 1060 c0 -5 5 -10 11 -10 5 0 7 5 4 10 -3 6 -8 10 -11 10 -2 0
-4 -4 -4 -10z"/>
<path d="M10895 1051 c-3 -5 -2 -12 3 -15 5 -3 9 1 9 9 0 17 -3 19 -12 6z"/>
<path d="M10953 1025 c0 -8 4 -12 9 -9 5 3 6 10 3 15 -9 13 -12 11 -12 -6z"/>
<path d="M10800 1020 c-9 -6 -10 -10 -3 -10 6 0 15 5 18 10 8 12 4 12 -15 0z"/>
<path d="M10894 996 c1 -8 5 -18 8 -22 4 -3 5 1 4 10 -1 8 -5 18 -8 22 -4 3
-5 -1 -4 -10z"/>
<path d="M10755 981 c-3 -5 -2 -12 3 -15 5 -3 9 1 9 9 0 17 -3 19 -12 6z"/>
<path d="M10790 979 c0 -5 5 -7 10 -4 6 3 10 8 10 11 0 2 -4 4 -10 4 -5 0 -10
-5 -10 -11z"/>
<path d="M3475 940 c3 -5 8 -10 11 -10 2 0 4 5 4 10 0 6 -5 10 -11 10 -5 0 -7
-4 -4 -10z"/>
<path d="M10770 940 c0 -5 5 -10 11 -10 5 0 7 5 4 10 -3 6 -8 10 -11 10 -2 0
-4 -4 -4 -10z"/>
<path d="M3530 906 c0 -2 7 -7 16 -10 8 -3 12 -2 9 4 -6 10 -25 14 -25 6z"/>
<path d="M10694 878 c-4 -7 -4 -10 1 -6 4 4 15 2 24 -5 14 -11 14 -10 2 6 -16
20 -18 21 -27 5z"/>
<path d="M10549 863 c-13 -16 -12 -17 4 -4 9 7 17 15 17 17 0 8 -8 3 -21 -13z"/>
<path d="M10654 856 c1 -8 5 -18 8 -22 4 -3 5 1 4 10 -1 8 -5 18 -8 22 -4 3
-5 -1 -4 -10z"/>
<path d="M10626 778 c3 -5 10 -6 15 -3 13 9 11 12 -6 12 -8 0 -12 -4 -9 -9z"/>
<path d="M10493 749 c-2 -23 3 -25 10 -4 4 8 3 16 -1 19 -4 3 -9 -4 -9 -15z"/>
<path d="M3786 738 c3 -5 10 -6 15 -3 13 9 11 12 -6 12 -8 0 -12 -4 -9 -9z"/>
<path d="M10335 720 c3 -5 8 -10 11 -10 2 0 4 5 4 10 0 6 -5 10 -11 10 -5 0
-7 -4 -4 -10z"/>
<path d="M10440 695 c-7 -9 -11 -17 -9 -20 3 -2 10 5 17 15 14 24 10 26 -8 5z"/>
<path d="M10290 679 c0 -5 5 -7 10 -4 6 3 10 8 10 11 0 2 -4 4 -10 4 -5 0 -10
-5 -10 -11z"/>
<path d="M3715 660 c-3 -5 -1 -10 4 -10 6 0 11 5 11 10 0 6 -2 10 -4 10 -3 0
-8 -4 -11 -10z"/>
<path d="M10250 640 c0 -5 5 -10 11 -10 5 0 7 5 4 10 -3 6 -8 10 -11 10 -2 0
-4 -4 -4 -10z"/>
<path d="M10065 619 c-3 -4 2 -6 10 -5 21 3 28 13 10 13 -9 0 -18 -4 -20 -8z"/>
<path d="M9980 600 c-9 -6 -10 -10 -3 -10 6 0 15 5 18 10 8 12 4 12 -15 0z"/>
<path d="M10154 602 c4 -3 14 -7 22 -8 9 -1 13 0 10 4 -4 3 -14 7 -22 8 -9 1
-13 0 -10 -4z"/>
<path d="M4116 573 c-6 -14 -5 -15 5 -6 7 7 10 15 7 18 -3 3 -9 -2 -12 -12z"/>
<path d="M10206 582 c-3 -5 1 -9 9 -9 8 0 12 4 9 9 -3 4 -7 8 -9 8 -2 0 -6 -4
-9 -8z"/>
<path d="M4233 555 c0 -8 4 -12 9 -9 5 3 6 10 3 15 -9 13 -12 11 -12 -6z"/>
<path d="M9970 559 c0 -5 5 -7 10 -4 6 3 10 8 10 11 0 2 -4 4 -10 4 -5 0 -10
-5 -10 -11z"/>
<path d="M4273 545 c0 -8 4 -12 9 -9 5 3 6 10 3 15 -9 13 -12 11 -12 -6z"/>
<path d="M9850 520 c0 -5 5 -10 11 -10 5 0 7 5 4 10 -3 6 -8 10 -11 10 -2 0
-4 -4 -4 -10z"/>
<path d="M9960 520 c-12 -7 -10 -9 7 -7 12 0 19 5 17 9 -6 10 -6 10 -24 -2z"/>
<path d="M10015 519 c-3 -4 2 -6 10 -5 21 3 28 13 10 13 -9 0 -18 -4 -20 -8z"/>
<path d="M10090 506 c0 -2 7 -7 16 -10 8 -3 12 -2 9 4 -6 10 -25 14 -25 6z"/>
<path d="M10145 500 c-3 -6 1 -7 9 -4 18 7 21 14 7 14 -6 0 -13 -4 -16 -10z"/>
<path d="M4456 475 c-9 -26 -7 -32 5 -12 6 10 9 21 6 23 -2 3 -7 -2 -11 -11z"/>
<path d="M9735 440 c3 -5 8 -10 11 -10 2 0 4 5 4 10 0 6 -5 10 -11 10 -5 0 -7
-4 -4 -10z"/>
<path d="M9775 440 c-3 -5 -1 -10 4 -10 6 0 11 5 11 10 0 6 -2 10 -4 10 -3 0
-8 -4 -11 -10z"/>
<path d="M10195 420 c-3 -5 -1 -10 4 -10 6 0 11 5 11 10 0 6 -2 10 -4 10 -3 0
-8 -4 -11 -10z"/>
<path d="M9670 405 c0 -7 30 -13 34 -7 3 4 -4 9 -15 9 -10 1 -19 0 -19 -2z"/>
<path d="M9734 402 c4 -3 14 -7 22 -8 9 -1 13 0 10 4 -4 3 -14 7 -22 8 -9 1
-13 0 -10 -4z"/>
<path d="M4387 379 c7 -7 15 -10 18 -7 3 3 -2 9 -12 12 -14 6 -15 5 -6 -5z"/>
<path d="M10313 365 c0 -8 4 -12 9 -9 5 3 6 10 3 15 -9 13 -12 11 -12 -6z"/>
<path d="M9390 356 c7 -7 13 -7 20 0 6 6 3 10 -10 10 -13 0 -16 -4 -10 -10z"/>
<path d="M4815 351 c-3 -5 -2 -12 3 -15 5 -3 9 1 9 9 0 17 -3 19 -12 6z"/>
<path d="M5030 279 c0 -5 5 -7 10 -4 6 3 10 8 10 11 0 2 -4 4 -10 4 -5 0 -10
-5 -10 -11z"/>
<path d="M9410 279 c0 -5 5 -7 10 -4 6 3 10 8 10 11 0 2 -4 4 -10 4 -5 0 -10
-5 -10 -11z"/>
<path d="M9446 282 c-3 -5 1 -9 9 -9 8 0 12 4 9 9 -3 4 -7 8 -9 8 -2 0 -6 -4
-9 -8z"/>
<path d="M9589 263 c-13 -16 -12 -17 4 -4 9 7 17 15 17 17 0 8 -8 3 -21 -13z"/>
<path d="M4747 259 c7 -7 15 -10 18 -7 3 3 -2 9 -12 12 -14 6 -15 5 -6 -5z"/>
<path d="M9235 260 c-3 -5 -1 -10 4 -10 6 0 11 5 11 10 0 6 -2 10 -4 10 -3 0
-8 -4 -11 -10z"/>
<path d="M9090 239 c0 -5 5 -7 10 -4 6 3 10 8 10 11 0 2 -4 4 -10 4 -5 0 -10
-5 -10 -11z"/>
<path d="M9376 242 c-2 -4 -1 -14 4 -22 7 -11 9 -9 7 8 -1 24 -3 26 -11 14z"/>
<path d="M8960 220 c-9 -6 -10 -10 -3 -10 6 0 15 5 18 10 8 12 4 12 -15 0z"/>
<path d="M9150 226 c0 -2 7 -7 16 -10 8 -3 12 -2 9 4 -6 10 -25 14 -25 6z"/>
<path d="M9193 215 c0 -8 4 -12 9 -9 5 3 6 10 3 15 -9 13 -12 11 -12 -6z"/>
<path d="M8840 200 c-9 -6 -10 -10 -3 -10 6 0 15 5 18 10 8 12 4 12 -15 0z"/>
<path d="M9050 200 c0 -5 5 -10 11 -10 5 0 7 5 4 10 -3 6 -8 10 -11 10 -2 0
-4 -4 -4 -10z"/>
<path d="M9090 199 c0 -5 5 -7 10 -4 6 3 10 8 10 11 0 2 -4 4 -10 4 -5 0 -10
-5 -10 -11z"/>
<path d="M9900 206 c0 -2 8 -10 18 -17 15 -13 16 -12 3 4 -13 16 -21 21 -21
13z"/>
<path d="M9167 179 c7 -7 15 -10 18 -7 3 3 -2 9 -12 12 -14 6 -15 5 -6 -5z"/>
<path d="M8890 160 c0 -5 5 -10 11 -10 5 0 7 5 4 10 -3 6 -8 10 -11 10 -2 0
-4 -4 -4 -10z"/>
<path d="M8930 160 c0 -5 5 -10 11 -10 5 0 7 5 4 10 -3 6 -8 10 -11 10 -2 0
-4 -4 -4 -10z"/>
<path d="M4875 151 c-3 -5 -2 -12 3 -15 5 -3 9 1 9 9 0 17 -3 19 -12 6z"/>
<path d="M8673 146 c0 -15 22 -15 34 0 4 5 4 6 -1 2 -5 -4 -14 -3 -21 2 -8 7
-12 5 -12 -4z"/>
<path d="M5390 146 c0 -2 7 -7 16 -10 8 -3 12 -2 9 4 -6 10 -25 14 -25 6z"/>
<path d="M9155 129 c-4 -6 -5 -12 -2 -15 2 -3 7 2 10 11 7 17 1 20 -8 4z"/>
<path d="M9016 122 c-3 -5 1 -9 9 -9 8 0 12 4 9 9 -3 4 -7 8 -9 8 -2 0 -6 -4
-9 -8z"/>
<path d="M8675 111 c-3 -5 -2 -12 3 -15 5 -3 9 1 9 9 0 17 -3 19 -12 6z"/>
<path d="M8773 91 c0 -11 5 -18 9 -15 4 3 5 11 1 19 -7 21 -12 19 -10 -4z"/>
<path d="M8570 79 c0 -5 5 -7 10 -4 6 3 10 8 10 11 0 2 -4 4 -10 4 -5 0 -10
-5 -10 -11z"/>
<path d="M8855 79 c-3 -4 2 -6 10 -5 21 3 28 13 10 13 -9 0 -18 -4 -20 -8z"/>
<path d="M5346 62 c-2 -4 4 -8 14 -8 10 0 16 4 14 8 -7 10 -21 10 -28 0z"/>
<path d="M8199 53 c-13 -16 -12 -17 4 -4 16 13 21 21 13 21 -2 0 -10 -8 -17
-17z"/>
<path d="M8240 60 c-9 -6 -10 -10 -3 -10 6 0 15 5 18 10 8 12 4 12 -15 0z"/>
<path d="M8630 66 c0 -2 7 -7 16 -10 8 -3 12 -2 9 4 -6 10 -25 14 -25 6z"/>
<path d="M8273 45 c0 -8 4 -12 9 -9 5 3 6 10 3 15 -9 13 -12 11 -12 -6z"/>
<path d="M8575 51 c-3 -5 -2 -12 3 -15 5 -3 9 1 9 9 0 17 -3 19 -12 6z"/>
<path d="M8030 38 c0 -4 4 -8 9 -8 6 0 12 4 15 8 3 5 -1 9 -9 9 -8 0 -15 -4
-15 -9z"/>
<path d="M8330 39 c0 -5 5 -7 10 -4 6 3 10 8 10 11 0 2 -4 4 -10 4 -5 0 -10
-5 -10 -11z"/>
<path d="M8450 39 c0 -5 5 -7 10 -4 6 3 10 8 10 11 0 2 -4 4 -10 4 -5 0 -10
-5 -10 -11z"/>
<path d="M8670 45 c0 -7 30 -13 34 -7 3 4 -4 9 -15 9 -10 1 -19 0 -19 -2z"/>
<path d="M8775 41 c-3 -5 -2 -12 3 -15 5 -3 9 1 9 9 0 17 -3 19 -12 6z"/>
<path d="M8229 23 c-13 -16 -12 -17 4 -4 16 13 21 21 13 21 -2 0 -10 -8 -17
-17z"/>
</g>
</svg>
